<?xml version="1.0" encoding="UTF-8" standalone="no"?>
<!-- Created with Inkscape (http://www.inkscape.org/) -->

<svg
   xmlns:dc="http://purl.org/dc/elements/1.1/"
   xmlns:cc="http://creativecommons.org/ns#"
   xmlns:rdf="http://www.w3.org/1999/02/22-rdf-syntax-ns#"
   xmlns:svg="http://www.w3.org/2000/svg"
   xmlns="http://www.w3.org/2000/svg"
   xmlns:sodipodi="http://sodipodi.sourceforge.net/DTD/sodipodi-0.dtd"
   xmlns:inkscape="http://www.inkscape.org/namespaces/inkscape"
   id="svg2"
   version="1.1"
   inkscape:version="0.91 r"
   xml:space="preserve"
   width="419.30072"
   height="179.66624"
   viewBox="0 0 419.30072 179.66624"
   sodipodi:docname="scmap.svg"><metadata
     id="metadata8"><rdf:RDF><cc:Work
         rdf:about=""><dc:format>image/svg+xml</dc:format><dc:type
           rdf:resource="http://purl.org/dc/dcmitype/StillImage" /><dc:title></dc:title></cc:Work></rdf:RDF></metadata><defs
     id="defs6"><marker
       inkscape:isstock="true"
       style="overflow:visible"
       id="marker5822"
       refX="0"
       refY="0"
       orient="auto"
       inkscape:stockid="Arrow1Lend"><path
         transform="matrix(-0.8,0,0,-0.8,-10,0)"
         style="fill:#000000;fill-opacity:1;fill-rule:evenodd;stroke:#000000;stroke-width:1pt;stroke-opacity:1"
         d="M 0,0 5,-5 -12.5,0 5,5 0,0 Z"
         id="path5824"
         inkscape:connector-curvature="0" /></marker><marker
       inkscape:stockid="Arrow1Lend"
       orient="auto"
       refY="0"
       refX="0"
       id="Arrow1Lend"
       style="overflow:visible"
       inkscape:isstock="true"
       inkscape:collect="always"><path
         id="path4875"
         d="M 0,0 5,-5 -12.5,0 5,5 0,0 Z"
         style="fill:#000000;fill-opacity:1;fill-rule:evenodd;stroke:#000000;stroke-width:1pt;stroke-opacity:1"
         transform="matrix(-0.8,0,0,-0.8,-10,0)"
         inkscape:connector-curvature="0" /></marker><clipPath
       clipPathUnits="userSpaceOnUse"
       id="clipPath18"><path
         d="m 810,5640 4480,0 0,-3360.83 -4480,0 0,3360.83 z"
         id="path20"
         inkscape:connector-curvature="0" /></clipPath><clipPath
       clipPathUnits="userSpaceOnUse"
       id="clipPath162"><path
         d="m 1391.67,4768.34 1500.83,0 0,-1500.01 -1500.83,0 0,1500.01 z"
         id="path164"
         inkscape:connector-curvature="0" /></clipPath><clipPath
       clipPathUnits="userSpaceOnUse"
       id="clipPath230"><path
         d="m 810,5640 4480,0 0,-3360.83 -4480,0 0,3360.83 z"
         id="path232"
         inkscape:connector-curvature="0" /></clipPath><clipPath
       clipPathUnits="userSpaceOnUse"
       id="clipPath362"><path
         d="m 3365,4769.17 1500,0 0,-1500.84 -1500,0 0,1500.84 z"
         id="path364"
         inkscape:connector-curvature="0" /></clipPath><clipPath
       clipPathUnits="userSpaceOnUse"
       id="clipPath372"><path
         d="m 810,5640 4480,0 0,-3360.83 -4480,0 0,3360.83 z"
         id="path374"
         inkscape:connector-curvature="0" /></clipPath><clipPath
       clipPathUnits="userSpaceOnUse"
       id="clipPath420"><path
         d="m 3365,4769.17 1500,0 0,-1500.84 -1500,0 0,1500.84 z"
         id="path422"
         inkscape:connector-curvature="0" /></clipPath></defs><sodipodi:namedview
     pagecolor="#ffffff"
     bordercolor="#666666"
     borderopacity="1"
     objecttolerance="10"
     gridtolerance="10"
     guidetolerance="10"
     inkscape:pageopacity="0"
     inkscape:pageshadow="2"
     inkscape:window-width="1920"
     inkscape:window-height="1053"
     id="namedview4"
     showgrid="false"
     inkscape:zoom="1.9070707"
     inkscape:cx="201.53086"
     inkscape:cy="0.6137496"
     inkscape:window-x="0"
     inkscape:window-y="1"
     inkscape:window-maximized="1"
     inkscape:current-layer="g10"
     fit-margin-top="4"
     fit-margin-left="4"
     fit-margin-right="4"
     fit-margin-bottom="4" /><g
     id="g10"
     inkscape:groupmode="layer"
     inkscape:label="scmap"
     transform="matrix(1.25,0,0,-1.25,-184.80258,592.22875)"><g
       id="g158"
       transform="matrix(0.1,0,0,0.1,-8.3684188e-7,0)"><g
         clip-path="url(#clipPath162)"
         id="g160"><path
           inkscape:connector-curvature="0"
           id="path176"
           style="fill:none;stroke:#0000ff;stroke-width:12.5;stroke-linecap:butt;stroke-linejoin:round;stroke-miterlimit:10;stroke-dasharray:none;stroke-opacity:1"
           d="m 2766.67,4500 -480.84,-96.67 95.84,-191.66"
           sodipodi:nodetypes="ccc" /><path
           inkscape:connector-curvature="0"
           id="path178"
           style="fill:none;stroke:#0000ff;stroke-width:12.5;stroke-linecap:butt;stroke-linejoin:round;stroke-miterlimit:10;stroke-dasharray:none;stroke-opacity:1"
           d="m 2285.83,4403.34 95.84,-191.67" /><path
           inkscape:connector-curvature="0"
           id="path184"
           style="fill:none;stroke:#0000ff;stroke-width:12.5;stroke-linecap:butt;stroke-linejoin:round;stroke-miterlimit:10;stroke-dasharray:none;stroke-opacity:1"
           d="M 2766.67,4500 1997.5,4595.835 1516.67,4211.67 2093.33,4019.17 1709.17,3635 2285.83,3442.5 2766.67,4500 Z"
           sodipodi:nodetypes="cccccccc" /><path
           inkscape:connector-curvature="0"
           id="path186"
           style="fill:none;stroke:#000000;stroke-width:5;stroke-linecap:butt;stroke-linejoin:round;stroke-miterlimit:10;stroke-dasharray:none;stroke-opacity:1"
           d="m 2220.83,4109.17 -5,-2.5 -2.5,-1.67 -1.66,-1.67 -2.5,-1.66 -0.84,-2.5 -1.66,-1.67 -1.67,-5 -0.83,-7.5 1.66,-7.5 3.34,-6.67 5.83,-5.83 5,-1.67 2.5,-0.83 2.5,-0.83 8.33,0 2.5,0.83 2.5,0.83 2.5,1.67 1.67,1.67 2.5,1.66 1.67,1.67 1.66,2.5 1.67,2.5 0.83,2.5 0.84,2.5 0.83,2.5 0,5.83 -0.83,2.5 -0.84,2.5 -0.83,2.5 -0.83,2.5 -1.67,2.5 -1.67,1.67 -2.5,2.5 -2.5,1.67 -1.66,0.83 -2.5,0.83 -2.5,0.84 -3.34,0.83 -5,0 -5,-0.83" /><path
           inkscape:connector-curvature="0"
           id="path188"
           style="fill:none;stroke:#000000;stroke-width:5;stroke-linecap:butt;stroke-linejoin:round;stroke-miterlimit:10;stroke-dasharray:none;stroke-opacity:1"
           d="m 2212.5,4132.5 -10,-5 -4.17,-3.33 -4.16,-3.34 -3.34,-4.16 -3.33,-4.17 -2.5,-5 -1.67,-4.17 -1.66,-5 -0.84,-5 0,-10 0.84,-5 0.83,-5 1.67,-4.16 1.66,-4.17 2.5,-5 2.5,-3.33 3.34,-4.17 4.16,-3.33 3.34,-3.34 4.16,-2.5 5,-2.5 5,-1.66 5,-1.67 5.84,-0.83 5,0 5.83,0.83 5,0.83 5.83,1.67 5,2.5 5,3.33 4.17,3.34 4.17,5 3.33,4.16 3.33,5 1.67,5.84 1.67,5 0.83,5.83 0,10.83 -0.83,5.84 -1.67,5 -2.5,5 -2.5,5 -3.33,4.16 -3.34,4.17 -4.16,4.17 -4.17,2.5 -5,3.33 -5,1.67 -5,1.66 -5.83,0.84 -5,0.83 -5.84,0 -10.83,-2.5" /><path
           inkscape:connector-curvature="0"
           id="path190"
           style="fill:none;stroke:#000000;stroke-width:5;stroke-linecap:butt;stroke-linejoin:round;stroke-miterlimit:10;stroke-dasharray:none;stroke-opacity:1"
           d="m 2204.17,4156.67 -10,-5 -5,-2.5 -6.67,-5 -6.67,-5.84 -5,-6.66 -4.16,-7.5 -3.34,-6.67 -2.5,-7.5 -0.83,-7.5 -0.83,-7.5 0,-14.17 1.66,-6.66 1.67,-6.67 2.5,-5.83 2.5,-5.84 2.5,-6.66 4.17,-5 4.16,-5.84 4.17,-5 5,-5 5.83,-5 6.67,-3.33 7.5,-4.17 7.5,-2.5 8.33,-1.66 8.34,-0.84 9.16,0 8.34,1.67 9.16,2.5 8.34,4.17 7.5,5 7.5,5.83 5.83,6.67 5,7.5 5,8.33 2.5,8.33 2.5,8.34 0.83,8.33 0,9.17 -0.83,8.33 -1.67,8.33 -2.5,7.5 -4.16,7.5 -4.17,6.67 -4.17,6.67 -5.83,5.83 -5.83,5 -6.67,5 -6.67,4.17 -7.5,3.33 -7.5,2.5 -7.5,1.67 -8.33,0.83 -8.33,0 -5.84,-0.83 -11.66,-2.5" /><path
           inkscape:connector-curvature="0"
           id="path192"
           style="fill:none;stroke:#000000;stroke-width:5;stroke-linecap:butt;stroke-linejoin:round;stroke-miterlimit:10;stroke-dasharray:none;stroke-opacity:1"
           d="m 2195.83,4182.5 -10.83,-5 -10.83,-5.83 -10,-7.5 -8.34,-9.17 -6.66,-10 -5,-10 -3.34,-10.83 -2.5,-10 -0.83,-10 0,-9.17 0.83,-9.17 1.67,-8.33 1.67,-8.33 2.5,-7.5 2.5,-7.5 3.33,-6.67 3.33,-7.5 4.17,-6.67 4.17,-6.66 5.83,-7.5 5.83,-6.67 6.67,-6.67 7.5,-5.83 9.17,-5.83 10,-5 11.66,-3.34 11.67,-2.5 12.5,0 13.33,1.67 12.5,3.33 11.67,5 11.67,7.5 10,8.34 8.33,10 7.5,10 5,11.66 4.17,11.67 2.5,12.5 0.83,11.67 0,11.66 -2.5,11.67 -2.5,10.83 -4.17,10 -5,9.17 -5.83,9.17 -6.67,7.5 -6.66,7.5 -7.5,6.66 -8.34,5.84 -8.33,5.83 -9.17,4.17 -10,4.16 -10.83,3.34 -10.83,1.66 -11.67,0 -11.67,-0.83 -12.5,-2.5" /><path
           inkscape:connector-curvature="0"
           id="path194"
           style="fill:none;stroke:#000000;stroke-width:5;stroke-linecap:butt;stroke-linejoin:round;stroke-miterlimit:10;stroke-dasharray:none;stroke-opacity:1"
           d="m 2188.33,4210 -10.83,-3.33 -5,-1.67 -5,-2.5 -5.83,-3.33 -4.17,-3.34 -5,-3.33 -4.17,-3.33 -4.16,-4.17 -4.17,-4.17 -3.33,-4.16 -3.34,-4.17 -3.33,-5 -2.5,-5 -2.5,-4.17 -2.5,-5 -3.33,-10 -2.5,-13.33 -1.67,-13.33 0.83,-12.5 1.67,-11.67 1.67,-10 3.33,-9.17 2.5,-9.16 6.67,-15.84 10.83,-23.33 4.17,-8.33 5,-8.34 5.83,-8.33 6.67,-9.17 8.33,-9.16 10.83,-9.17 11.67,-7.5 10,-5 5,-1.67 5,-1.66 5.83,-1.67 5,-0.83 5.84,-0.84 5.83,0 5.83,-0.83 5.84,0.83 5.83,0 5.83,0.84 5.84,1.66 5.83,1.67 5.83,1.67 5.84,1.66 5.83,2.5 5,3.34 5,2.5 5,3.33 5,3.33 4.17,4.17 8.33,7.5 11.67,13.33 9.16,14.17 6.67,15 5,15.83 2.5,15.84 0.83,15.83 -1.66,15 -3.34,14.17 -5,13.33 -6.66,12.5 -6.67,10.83 -7.5,9.17 -7.5,9.17 -8.33,8.33 -8.34,7.5 -9.16,7.5 -10,6.67 -10.84,6.66 -11.66,5 -12.5,5 -14.17,3.34 -15,1.66 -15.83,0 -15.84,-3.33" /><path
           inkscape:connector-curvature="0"
           id="path196"
           style="fill:none;stroke:#000000;stroke-width:5;stroke-linecap:butt;stroke-linejoin:round;stroke-miterlimit:10;stroke-dasharray:none;stroke-opacity:1"
           d="m 2181.67,4241.67 -15,-4.17 -7.5,-2.5 -6.67,-3.33 -7.5,-3.34 -6.67,-4.16 -6.66,-5 -5.84,-5 -5.83,-5.84 -5,-5.83 -5,-6.67 -4.17,-6.66 -3.33,-6.67 -3.33,-6.67 -2.5,-6.66 -1.67,-6.67 -1.67,-6.67 -0.83,-5.83 -0.83,-6.67 -0.84,-5.83 0,-5.83 1.67,-16.67 2.5,-14.17 4.17,-12.5 4.16,-11.66 4.17,-9.17 4.17,-9.17 7.5,-15.83 10,-23.33 3.33,-9.17 4.17,-9.17 4.16,-10.83 5.84,-11.67 8.33,-11.66 6.67,-9.17 4.16,-4.17 4.17,-4.16 5,-4.17 5,-4.17 5.83,-4.16 5.84,-3.34 6.66,-3.33 6.67,-3.33 6.67,-2.5 7.5,-1.67 7.5,-1.67 8.33,-1.66 15.83,0 8.34,0.83 7.5,0.83 8.33,1.67 7.5,1.67 7.5,3.33 7.5,2.5 6.67,3.33 7.5,4.17 5.83,4.17 6.67,4.16 5.83,5 5.83,4.17 5,5 5,5.83 5,5 4.17,5.84 4.17,5.83 4.16,5.83 3.34,5.84 3.33,6.66 3.33,5.84 2.5,6.66 2.5,5.84 2.5,6.66 1.67,6.67 1.67,6.67 0.83,6.66 0.83,6.67 0.84,6.67 0.83,6.66 -0.83,6.67 0,6.67 -0.84,6.66 -0.83,5.84 -1.67,6.66 -1.66,5.84 -1.67,5.83 -1.67,5.83 -8.33,15.84 -8.33,13.33 -9.17,11.67 -9.17,10 -9.16,9.16 -9.17,8.34 -9.17,8.33 -10,8.33 -10,8.34 -11.66,7.5 -12.5,7.5 -14.17,7.5 -15.83,5.83 -12.5,2.5 -5.84,1.67 -6.66,0.83 -6.67,0 -6.67,0.83 -7.5,0 -14.16,-1.66" /><path
           inkscape:connector-curvature="0"
           id="path198"
           style="fill:none;stroke:#000000;stroke-width:5;stroke-linecap:butt;stroke-linejoin:round;stroke-miterlimit:10;stroke-dasharray:none;stroke-opacity:1"
           d="m 2177.5,4277.5 -10.83,-0.83 -10,-2.5 -10,-2.5 -10.84,-4.17 -10,-4.17 -10,-5.83 -9.16,-6.67 -8.34,-7.5 -8.33,-8.33 -6.67,-9.17 -5.83,-9.16 -5,-10 -4.17,-9.17 -2.5,-10 -2.5,-9.17 -0.83,-9.16 -0.83,-9.17 0,-16.67 0.83,-7.5 1.67,-7.5 1.66,-6.66 3.34,-12.5 6.66,-15.84 6.67,-12.5 5.83,-10.83 5.84,-10 10,-15.83 4.16,-6.67 4.17,-7.5 2.5,-7.5 2.5,-7.5 1.67,-9.17 2.5,-10 2.5,-11.66 4.16,-13.34 5.84,-16.66 2.5,-5.84 3.33,-5.83 3.33,-6.67 4.17,-5.83 5,-6.67 5.83,-6.66 6.67,-6.67 7.5,-5.83 7.5,-5.84 9.17,-5 9.16,-5 10.84,-3.33 10,-2.5 10.83,-2.5 11.67,-0.83 10.83,0 10.83,0.83 10.84,1.67 10.83,3.33 10,3.33 10,3.34 9.17,5 8.33,4.16 8.33,5.84 7.5,5.83 7.5,5.83 6.67,5.84 6.67,6.66 6.66,5.84 5.84,6.66 5,7.5 5,6.67 5,6.67 4.16,7.5 4.17,7.5 3.33,6.66 4.17,7.5 2.5,8.34 3.33,7.5 2.5,7.5 1.67,8.33 2.5,7.5 0.83,8.33 1.67,8.34 0.83,8.33 0,15.83 -0.83,8.34 -0.83,8.33 -1.67,8.33 -2.5,7.5 -2.5,7.5 -3.33,7.5 -3.34,6.67 -3.33,6.67 -4.17,5.83 -4.16,5.83 -4.17,5 -8.33,9.17 -12.5,10.83 -10,9.17 -10,8.33 -9.17,9.17 -9.17,8.33 -10,9.17 -10,9.17 -11.66,10 -13.34,10 -15,9.16 -17.5,9.17 -6.66,3.33 -6.67,2.5 -7.5,2.5 -7.5,1.67 -8.33,2.5 -8.34,0.83 -9.16,1.67 -19.17,0" /><path
           inkscape:connector-curvature="0"
           id="path200"
           style="fill:none;stroke:#000000;stroke-width:5;stroke-linecap:butt;stroke-linejoin:round;stroke-miterlimit:10;stroke-dasharray:none;stroke-opacity:1"
           d="m 2177.5,4320 -28.33,0 -15,-2.5 -15,-4.17 -15.84,-5.83 -14.16,-7.5 -14.17,-10 -12.5,-10.83 -10.83,-13.34 -9.17,-13.33 -7.5,-14.17 -5.83,-15 -3.34,-14.16 -2.5,-14.17 0,-13.33 0.84,-12.5 0.83,-11.67 2.5,-10.83 3.33,-10 2.5,-8.34 4.17,-8.33 3.33,-7.5 7.5,-13.33 10,-15.84 10,-11.66 8.34,-10.84 7.5,-8.33 12.5,-14.17 4.16,-5.83 3.34,-5.83 2.5,-6.67 0.83,-6.67 0.83,-8.33 0,-38.33 2.5,-19.17 0.84,-7.5 1.66,-8.33 2.5,-8.34 3.34,-9.16 4.16,-10 5.84,-10 6.66,-10 8.34,-10.84 9.16,-10 11.67,-9.16 13.33,-7.5 14.17,-6.67 15.83,-5 15.84,-3.33 15.83,-0.84 15.83,0.84 15,2.5 15,3.33 13.34,5 12.5,5 11.66,6.67 11.67,6.66 10,6.67 9.17,7.5 8.33,8.33 8.33,7.5 7.5,7.5 7.5,8.34 6.67,7.5 5.83,8.33 5.84,8.33 5,8.34 5,8.33 5,8.33 4.16,8.34 4.17,8.33 4.17,8.33 3.33,8.34 3.33,9.16 3.34,9.17 2.5,9.17 2.5,9.16 1.66,9.17 1.67,10 0.83,10 0.84,10 0,20.83 -1.67,10 -2.5,10.84 -2.5,10 -4.17,10 -5,9.16 -5.83,9.17 -5.83,7.5 -6.67,6.67 -6.67,5.83 -6.66,5 -11.67,7.5 -15,7.5 -10.83,7.5 -10,7.5 -8.34,8.33 -9.16,9.17 -9.17,9.17 -10,10.83 -10.83,10.83 -12.5,12.5 -15,12.5 -17.5,12.5 -14.17,9.17 -8.33,4.17 -8.34,5 -9.16,4.16 -10,3.34 -11.67,3.33 -11.67,2.5 -13.33,2.5" /><path
           inkscape:connector-curvature="0"
           id="path202"
           style="fill:none;stroke:#000000;stroke-width:5;stroke-linecap:butt;stroke-linejoin:round;stroke-miterlimit:10;stroke-dasharray:none;stroke-opacity:1"
           d="m 2188.33,4369.17 -12.5,4.16 -5.83,1.67 -7.5,0.83 -6.67,0.84 -7.5,0.83 -6.66,0.83 -7.5,0 -8.34,-0.83 -7.5,-0.83 -7.5,-0.84 -8.33,-1.66 -7.5,-1.67 -8.33,-2.5 -7.5,-2.5 -8.34,-2.5 -7.5,-4.17 -7.5,-3.33 -7.5,-4.17 -7.5,-5 -6.66,-5 -6.67,-5.83 -6.67,-5.83 -5.83,-5.84 -6.67,-6.66 -5,-6.67 -5.83,-6.67 -4.17,-7.5 -5,-6.66 -3.33,-7.5 -4.17,-8.34 -2.5,-7.5 -3.33,-8.33 -1.67,-7.5 -1.66,-7.5 -1.67,-8.33 -0.83,-7.5 0,-21.67 0.83,-7.5 0.83,-6.67 4.17,-18.33 5,-15.83 5.83,-14.17 6.67,-12.5 6.67,-10.83 6.66,-9.17 6.67,-8.33 5.83,-6.67 10.84,-12.5 15,-14.17 12.5,-10.83 10.83,-8.33 9.17,-7.5 13.33,-10.84 5,-5 3.33,-5 1.67,-5 0,-5.83 -0.83,-6.67 -5.84,-21.66 -3.33,-15.84 -4.17,-20.83 -1.66,-8.33 -0.84,-10 0,-22.5 1.67,-14.17 2.5,-15 5,-16.67 5,-11.66 2.5,-5.84 3.33,-5.83 3.34,-5.83 4.16,-6.67 5,-5.83 5,-5.84 5.84,-5.83 5.83,-5 5.83,-5.83 7.5,-4.17 6.67,-5 7.5,-4.17 7.5,-3.33 8.33,-3.33 8.34,-2.5 8.33,-2.5 8.33,-1.67 8.34,-1.67 8.33,-0.83 16.67,0 8.33,0.83 7.5,0.84 7.5,0.83 7.5,1.67 7.5,2.5 14.17,4.16 18.33,8.34 16.67,9.16 15,9.17 13.33,10 11.67,10.83 10.83,10 10,10 8.33,10 8.34,10 7.5,9.17 6.66,10 6.67,9.17 5.83,9.16 5.84,9.17 5.83,9.17 5,10 5,9.16 4.17,9.17 5,9.17 4.16,9.16 3.34,9.17 4.16,10 3.34,10 3.33,10 3.33,10 2.5,10.83 2.5,10.84 2.5,10.83 1.67,12.5 0.83,12.5 0.84,12.5 -0.84,13.33 -1.66,14.17 -3.34,14.17 -5,15 -5,9.16 -2.5,4.17 -3.33,4.17 -3.33,4.16 -3.34,4.17 -3.33,4.17 -4.17,3.33 -3.33,2.5 -4.17,3.33 -8.33,4.17 -11.67,5 -10.83,2.5 -15.83,2.5 -11.67,0.83 -4.17,0.84 -4.16,0.83 -3.34,0.83 -2.5,1.67 -3.33,2.5 -5,4.17 -7.5,7.5 -8.33,10 -7.5,10 -9.17,11.66 -10,12.5 -11.67,13.34 -13.33,15.83 -16.67,16.67 -13.33,12.5 -7.5,6.66 -8.33,6.67 -10,7.5 -10,7.5 -12.5,7.5 -14.17,7.5 -16.67,6.67" /><path
           inkscape:connector-curvature="0"
           id="path204"
           style="fill:none;stroke:#000000;stroke-width:5;stroke-linecap:butt;stroke-linejoin:round;stroke-miterlimit:10;stroke-dasharray:none;stroke-opacity:1"
           d="m 2220.83,4425.84 -7.5,6.66 -9.16,5.84 -9.17,5 -10,5 -10.83,4.16 -11.67,3.34 -10.83,2.5 -12.5,2.5 -11.67,0.83 -12.5,0.83 -12.5,0 -12.5,-0.83 -13.33,-1.67 -12.5,-2.5 -13.34,-3.33 -12.5,-4.17 -12.5,-5 -11.66,-5 -12.5,-6.66 -11.67,-6.67 -10.83,-7.5 -11.67,-8.34 -10,-8.33 -10,-9.17 -10,-10 -9.17,-10.83 -9.16,-10.83 -8.34,-11.67 -7.5,-12.5 -6.66,-13.33 -5,-13.34 -5,-15 -3.34,-14.16 -1.66,-15 -0.84,-14.17 0.84,-14.17 2.5,-13.33 2.5,-13.33 4.16,-11.67 4.17,-10.83 5,-9.17 5,-9.17 5,-8.33 5,-7.5 5,-6.67 15,-17.5 14.17,-13.33 11.66,-10.83 11.67,-9.17 10,-8.33 9.17,-6.67 23.33,-15 19.17,-10.83 14.16,-8.34 12.5,-6.66 10,-5.84 15,-8.33 5,-3.33 3.34,-2.5 1.66,-3.34 -1.66,-4.16 -2.5,-5.84 -10.84,-19.16 -8.33,-14.17 -10,-20 -5,-8.33 -4.17,-10 -5,-11.67 -5,-13.33 -5,-15.84 -5,-19.16 -2.5,-15 -0.83,-9.17 -0.83,-9.17 0,-20 0.83,-10.83 2.5,-12.5 3.33,-12.5 4.17,-12.5 5.83,-13.33 7.5,-13.34 9.17,-12.5 10,-11.66 11.67,-11.67 13.33,-10 14.17,-8.33 14.16,-7.5 15.84,-5.84 15.83,-5 15,-2.5 15.83,-1.66 15.84,-0.84 15,1.67 15,1.67 13.33,3.33 13.33,4.17 11.67,5 10.83,5 10.84,5.83 9.16,5.83 9.17,5.84 7.5,5.83 7.5,5.83 14.17,11.67 16.66,16.67 14.17,15.83 12.5,15 10.83,14.17 10,13.33 8.34,12.5 8.33,12.5 7.5,11.67 6.67,10.83 5.83,10.83 5.83,10.84 5.84,10 5.83,10.83 5,10 5,9.17 5,10 4.17,10 5,10 4.16,10 4.17,9.16 4.17,10 4.16,10.84 4.17,10 4.17,10.83 4.16,10.83 3.34,11.67 4.16,12.5 3.34,12.5 3.33,14.17 3.33,15 2.5,16.66 1.67,17.5 0,20.84 -0.83,7.5 -0.84,7.5 -1.66,8.33 -1.67,8.33 -3.33,8.34 -3.34,9.16 -4.16,8.34 -5.84,9.16 -6.66,8.34 -7.5,7.5 -9.17,6.66 -10,5 -10,4.17 -10,2.5 -19.17,0 -7.5,-1.67 -7.5,-1.66 -6.66,-2.5 -5,-3.34 -4.17,-2.5 -10,-7.5 -6.67,-5 -5,-5 -2.5,-0.83 -2.5,-1.67 -5.83,1.67 -2.5,1.67 -3.33,4.16 -5.84,7.5 -6.66,10 -6.67,10.84 -8.33,12.5 -8.34,13.33 -10,15.83 -11.66,17.5 -14.17,20 -17.5,24.17 -6.67,9.17 -7.5,10 -8.33,10.83 -9.17,13.33 -12.5,16.67 -5,5.83 -12.5,12.51" /><path
           inkscape:connector-curvature="0"
           id="path206"
           style="fill:none;stroke:#000000;stroke-width:5;stroke-linecap:butt;stroke-linejoin:round;stroke-miterlimit:10;stroke-dasharray:none;stroke-opacity:1"
           d="m 2227.5,4085.83 -5.83,20 -6.67,19.17 -6.67,20 -6.66,20.83 -7.5,22.5 -6.67,24.17 -5.83,26.67 -1.67,9.16 -0.83,10 -1.67,10 -0.83,10.84 0,23.33 0.83,12.5 1.67,13.33 1.66,13.34 3.34,14.16 5,15 5.83,15 8.33,16.67 7.5,10.83 4.17,5 4.17,5.84 5,5 5,5.83 6.66,5.83 6.67,5.84 8.33,5 9.17,5.83 11.67,5.83 14.16,5 20,5.84 8.34,1.66 10,2.5 13.33,1.67 17.5,1.67 27.5,2.5 15.83,1.66 25,0.84 14.17,0.83 22.5,0.83 12.5,0.84 20,0.83 11.67,0 17.5,0.83 10,0 15.83,0.84 4.17,0 215,8.33" /><path
           inkscape:connector-curvature="0"
           id="path208"
           style="fill:none;stroke:#000000;stroke-width:5;stroke-linecap:butt;stroke-linejoin:round;stroke-miterlimit:10;stroke-dasharray:none;stroke-opacity:1"
           d="m 2227.5,4085.83 -15.83,12.5 -16.67,11.67 -17.5,10.83 -18.33,10 -19.17,10 -20.83,7.5 -15.84,5 -8.33,1.67 -8.33,1.67 -8.34,0.83 -9.16,0.83 -9.17,0.84 -10,0 -10,-0.84 -10.83,-1.66 -10.84,-1.67 -10.83,-3.33 -10.83,-4.17 -10.84,-5 -10.83,-5.83 -10.83,-7.5 -10,-8.34 -9.17,-10 -7.5,-11.66 -6.67,-11.67 -5,-12.5"
           sodipodi:nodetypes="ccccccccccccccccccccccccccc" /><path
           inkscape:connector-curvature="0"
           id="path210"
           style="fill:none;stroke:#000000;stroke-width:5;stroke-linecap:butt;stroke-linejoin:round;stroke-miterlimit:10;stroke-dasharray:none;stroke-opacity:1"
           d="m 2227.5,4085.83 -20,0 -20,0.84 -18.33,-0.84 -18.34,-1.66 -16.66,-2.5 -15,-3.34 -13.34,-5 -11.66,-5.83 -10,-6.67 -8.34,-7.5 -6.66,-7.5 -5,-8.33 -2.5,-7.5" /><path
           inkscape:connector-curvature="0"
           id="path212"
           style="fill:none;stroke:#000000;stroke-width:5;stroke-linecap:butt;stroke-linejoin:round;stroke-miterlimit:10;stroke-dasharray:none;stroke-opacity:1"
           d="m 2227.5,4085.83 -16.67,-11.66 -16.66,-10.84 -15,-9.16 -15,-9.17 -13.34,-7.5 -12.5,-5.83 -11.66,-5 -9.17,-4.17 -7.5,-2.5 -6.67,-1.67 -5,0 -3.33,-0.83 -1.67,0.83" /><path
           inkscape:connector-curvature="0"
           id="path214"
           style="fill:none;stroke:#000000;stroke-width:5;stroke-linecap:butt;stroke-linejoin:round;stroke-miterlimit:10;stroke-dasharray:none;stroke-opacity:1"
           d="m 2227.5,4085.83 -6.67,-19.16 -8.33,-19.17 -8.33,-17.5 -10,-17.5 -11.67,-15.83 -8.33,-10 -4.17,-4.17 -5,-5 -5,-4.17 -5.83,-3.33 -5,-4.17 -5.84,-3.33 -5.83,-2.5 -5.83,-2.5 -6.67,-2.5 -5.83,-1.67 -6.67,-1.66 -6.67,0 -6.66,-0.84 -6.67,0.84 -6.67,0.83 -6.66,0.83 -5.84,2.5 -6.66,2.5 -5,2.5 -5.84,3.34 -9.16,8.33" /><path
           inkscape:connector-curvature="0"
           id="path216"
           style="fill:none;stroke:#000000;stroke-width:5;stroke-linecap:butt;stroke-linejoin:round;stroke-miterlimit:10;stroke-dasharray:none;stroke-opacity:1"
           d="m 2227.5,4085.83 5.83,-20 5,-20.83 4.17,-20.83 4.17,-22.5 3.33,-24.17 2.5,-26.67 2.5,-29.16 0.83,-10 0.84,-10.84 0.83,-11.66 0.83,-11.67 0.84,-12.5 1.66,-13.33 1.67,-14.17 2.5,-15 3.33,-15 3.34,-16.67 5,-17.5 6.66,-18.33 8.34,-20 10,-20 5,-6.67 4.16,-6.66 5,-6.67 5,-6.67 5.84,-6.66 6.66,-5.84 6.67,-5.83 6.67,-5.83 7.5,-5.84 7.5,-5 15.83,-8.33" /><path
           inkscape:connector-curvature="0"
           id="path218"
           style="fill:none;stroke:#000000;stroke-width:5;stroke-linecap:butt;stroke-linejoin:round;stroke-miterlimit:10;stroke-dasharray:none;stroke-opacity:1"
           d="m 2227.5,4085.83 16.67,-12.5 16.66,-13.33 17.5,-14.17 19.17,-14.16 19.17,-15 20.83,-14.17 22.5,-15 22.5,-15 24.17,-14.17 23.33,-13.33 24.17,-12.5 22.5,-11.67 21.66,-10" /><path
           inkscape:connector-curvature="0"
           id="path220"
           style="fill:none;stroke:#000000;stroke-width:5;stroke-linecap:butt;stroke-linejoin:round;stroke-miterlimit:10;stroke-dasharray:none;stroke-opacity:1"
           d="m 2227.5,4085.83 20.83,-0.83 43.34,0 21.66,1.67 22.5,1.66 22.5,3.34 23.34,4.16 25,5.84 25.83,8.33 10,2.5 10,3.33 10,3.34 11.67,3.33 11.66,2.5 12.5,3.33 14.17,2.5 15,1.67 16.67,0 16.66,-1.67 16.67,-3.33 16.67,-6.67" /><path
           inkscape:connector-curvature="0"
           id="path222"
           style="fill:none;stroke:#000000;stroke-width:5;stroke-linecap:butt;stroke-linejoin:round;stroke-miterlimit:10;stroke-dasharray:none;stroke-opacity:1"
           d="m 2227.5,4085.83 17.5,11.67 16.67,12.5 16.66,12.5 16.67,12.5 15,12.5 14.17,11.67 12.5,11.66 10.83,11.67 9.17,10 7.5,9.17 5.83,6.66 5,5.84 4.17,2.5" /><path
           inkscape:connector-curvature="0"
           id="path224"
           style="fill:none;stroke:#000000;stroke-width:5;stroke-linecap:butt;stroke-linejoin:round;stroke-miterlimit:10;stroke-dasharray:none;stroke-opacity:1"
           d="m 2227.5,4085.83 6.67,19.17 6.66,20 6.67,20 7.5,19.17 7.5,19.16 8.33,18.34 9.17,16.66 10,15 10.83,13.34 10.84,11.66 11.66,10 11.67,7.5 11.67,6.67" /></g></g><g
       id="g6002"
       transform="translate(7.8125e-6,0)"><g
         transform="scale(0.1,0.1)"
         id="g358"><g
           id="g360"
           clip-path="url(#clipPath362)"><path
             d="m 4795.83,4019.17 -1.66,43.33 -4.17,43.33 -6.67,42.5 -9.16,41.67 -12.5,41.67 -15,40.83 -17.5,39.17 -19.17,39.16 -22.5,36.67 -25,35.83 -26.67,34.17 -28.33,31.67 -30.83,30.83 -32.5,28.33 -35,25.84 -35.84,24.16 -37.5,21.67 -38.33,19.17 -40,16.66 -40.83,14.17 -41.67,11.67 -42.5,8.33 -42.5,6.67 -43.33,3.33 -43.34,0.83 -43.33,-2.5 -42.5,-5 -42.5,-7.5 -42.5,-10 -40.83,-12.5 -40.84,-15.83 -39.16,-17.5 -38.34,-20.83 -36.66,-22.5 -35,-25 -33.34,-27.5 -32.5,-29.17 -29.16,-31.67 -28.34,-33.33 -25.83,-34.17 -23.33,-36.66 -20.84,-37.5 -18.33,-39.17 -15.83,-40 -14.17,-41.67 -10.83,-41.66 -7.5,-42.5 -5.84,-42.5 -2.5,-43.34 0,-43.33 2.5,-43.33 5.84,-42.5 7.5,-42.5 10.83,-41.67 14.17,-41.67 15.83,-40 18.33,-39.16 20.84,-37.5 23.33,-36.67 25.83,-34.17 28.34,-33.33 29.16,-31.67 32.5,-29.16 33.34,-27.5 35,-25 36.66,-22.5 38.34,-20.84 39.16,-17.5 40.84,-15.83 40.83,-12.5 42.5,-10 42.5,-7.5 42.5,-5 43.33,-2.5 43.34,0.83 43.33,3.34 42.5,6.66 42.5,8.34 41.67,11.66 40.83,14.17 40,16.67 38.33,19.16 37.5,21.67 35.84,24.17 35,25.83 32.5,28.33 30.83,30.84 28.33,31.66 26.67,34.17 25,35.83 22.5,36.67 19.17,39.17 17.5,39.16 15,40.84 12.5,41.66 9.16,41.67 6.67,42.5 4.17,43.33 1.66,43.34"
             style="fill:none;stroke:#0000ff;stroke-width:10;stroke-linecap:butt;stroke-linejoin:round;stroke-miterlimit:10;stroke-dasharray:none;stroke-opacity:1"
             id="path366"
             inkscape:connector-curvature="0" /></g></g><g
         transform="scale(0.1,0.1)"
         id="g416"><g
           id="g418"
           clip-path="url(#clipPath420)"><path
             d="m 4175.83,4019.17 0,7.5 -0.83,4.16 -0.83,3.34 -0.84,4.16 -1.66,3.34 -1.67,4.16 -1.67,3.34 -1.66,3.33 -2.5,3.33 -2.5,2.5 -2.5,3.34 -2.5,2.5 -3.34,2.5 -2.5,2.5 -3.33,2.5 -3.33,1.66 -3.34,1.67 -4.16,1.67 -3.34,1.66 -4.16,0.84 -3.34,0.83 -4.16,0.83 -15,0 -4.17,-0.83 -3.33,-0.83 -4.17,-0.84 -3.33,-1.66 -4.17,-1.67 -3.33,-1.67 -3.34,-1.66 -3.33,-2.5 -2.5,-2.5 -3.33,-2.5 -2.5,-2.5 -2.5,-3.34 -2.5,-2.5 -2.5,-3.33 -1.67,-3.33 -1.67,-3.34 -1.66,-4.16 -1.67,-3.34 -0.83,-4.16 -0.84,-3.34 -0.83,-4.16 0,-15 0.83,-4.17 0.84,-3.33 0.83,-4.17 1.67,-3.33 1.66,-4.17 1.67,-3.33 1.67,-3.34 2.5,-3.33 2.5,-2.5 2.5,-3.33 2.5,-2.5 3.33,-2.5 2.5,-2.5 3.33,-2.5 3.34,-1.67 3.33,-1.67 4.17,-1.66 3.33,-1.67 4.17,-0.83 3.33,-0.84 4.17,-0.83 15,0 4.16,0.83 3.34,0.84 4.16,0.83 3.34,1.67 4.16,1.66 3.34,1.67 3.33,1.67 3.33,2.5 2.5,2.5 3.34,2.5 2.5,2.5 2.5,3.33 2.5,2.5 2.5,3.33 1.66,3.34 1.67,3.33 1.67,4.17 1.66,3.33 0.84,4.17 0.83,3.33 0.83,4.17 0,7.5"
             style="fill:none;stroke:#000000;stroke-width:5;stroke-linecap:butt;stroke-linejoin:round;stroke-miterlimit:10;stroke-dasharray:none;stroke-opacity:1"
             id="path424"
             inkscape:connector-curvature="0" /><path
             d="m 4238.33,4019.17 0,7.5 -0.83,8.33 -1.67,7.5 -1.66,7.5 -1.67,7.5 -3.33,7.5 -2.5,6.67 -4.17,7.5 -3.33,6.66 -5,5.84 -4.17,6.66 -5.83,5.84 -5,5 -5.84,5.83 -6.66,4.17 -5.84,5 -6.66,3.33 -7.5,4.17 -6.67,2.5 -7.5,3.33 -7.5,1.67 -7.5,1.66 -7.5,1.67 -8.33,0.83 -15,0 -8.34,-0.83 -7.5,-1.67 -7.5,-1.66 -7.5,-1.67 -7.5,-3.33 -6.66,-2.5 -7.5,-4.17 -6.67,-3.33 -5.83,-5 -6.67,-4.17 -5.83,-5.83 -5,-5 -5.84,-5.84 -4.16,-6.66 -5,-5.84 -3.34,-6.66 -4.16,-7.5 -2.5,-6.67 -3.34,-7.5 -1.66,-7.5 -1.67,-7.5 -1.67,-7.5 -0.83,-8.33 0,-15 0.83,-8.34 1.67,-7.5 1.67,-7.5 1.66,-7.5 3.34,-7.5 2.5,-6.66 4.16,-7.5 3.34,-6.67 5,-5.83 4.16,-6.67 5.84,-5.83 5,-5 5.83,-5.84 6.67,-4.16 5.83,-5 6.67,-3.34 7.5,-4.16 6.66,-2.5 7.5,-3.34 7.5,-1.66 7.5,-1.67 7.5,-1.67 8.34,-0.83 15,0 8.33,0.83 7.5,1.67 7.5,1.67 7.5,1.66 7.5,3.34 6.67,2.5 7.5,4.16 6.66,3.34 5.84,5 6.66,4.16 5.84,5.84 5,5 5.83,5.83 4.17,6.67 5,5.83 3.33,6.67 4.17,7.5 2.5,6.66 3.33,7.5 1.67,7.5 1.66,7.5 1.67,7.5 0.83,8.34 0,7.5"
             style="fill:none;stroke:#000000;stroke-width:5;stroke-linecap:butt;stroke-linejoin:round;stroke-miterlimit:10;stroke-dasharray:none;stroke-opacity:1"
             id="path426"
             inkscape:connector-curvature="0" /><path
             d="m 4300,4019.17 0,11.66 -1.67,11.67 -1.66,11.67 -2.5,11.66 -3.34,10.84 -3.33,10.83 -5,10.83 -5,10.84 -6.67,10 -5.83,9.16 -7.5,9.17 -7.5,9.17 -8.33,8.33 -9.17,7.5 -9.17,7.5 -9.16,5.83 -10,6.67 -10.84,5 -10.83,5 -10.83,3.33 -10.84,3.34 -11.66,2.5 -11.67,1.66 -11.67,1.67 -23.33,0 -11.67,-1.67 -11.66,-1.66 -11.67,-2.5 -10.83,-3.34 -10.84,-3.33 -10.83,-5 -10.83,-5 -10,-6.67 -9.17,-5.83 -9.17,-7.5 -9.16,-7.5 -8.34,-8.33 -7.5,-9.17 -7.5,-9.17 -5.83,-9.16 -6.67,-10 -5,-10.84 -5,-10.83 -3.33,-10.83 -3.33,-10.84 -2.5,-11.66 -1.67,-11.67 -1.67,-11.67 0,-23.33 1.67,-11.67 1.67,-11.66 2.5,-11.67 3.33,-10.83 3.33,-10.84 5,-10.83 5,-10.83 6.67,-10 5.83,-9.17 7.5,-9.17 7.5,-9.16 8.34,-8.34 9.16,-7.5 9.17,-7.5 9.17,-5.83 10,-6.67 10.83,-5 10.83,-5 10.84,-3.33 10.83,-3.33 11.67,-2.5 11.66,-1.67 11.67,-1.67 23.33,0 11.67,1.67 11.67,1.67 11.66,2.5 10.84,3.33 10.83,3.33 10.83,5 10.84,5 10,6.67 9.16,5.83 9.17,7.5 9.17,7.5 8.33,8.34 7.5,9.16 7.5,9.17 5.83,9.17 6.67,10 5,10.83 5,10.83 3.33,10.84 3.34,10.83 2.5,11.67 1.66,11.66 1.67,11.67 0,11.67"
             style="fill:none;stroke:#000000;stroke-width:5;stroke-linecap:butt;stroke-linejoin:round;stroke-miterlimit:10;stroke-dasharray:none;stroke-opacity:1"
             id="path428"
             inkscape:connector-curvature="0" /><path
             d="m 4362.5,4019.17 -0.83,15.83 -1.67,15 -2.5,15.83 -3.33,15 -4.17,15 -5,15 -6.67,14.17 -6.66,13.33 -8.34,13.34 -8.33,13.33 -10,12.5 -10,11.67 -10.83,10.83 -11.67,10 -12.5,10 -13.33,8.33 -13.34,8.34 -13.33,6.66 -14.17,6.67 -15,5 -15,4.17 -15,3.33 -15.83,2.5 -15,1.67 -15.83,0.83 -15.84,-0.83 -15,-1.67 -15.83,-2.5 -15,-3.33 -15,-4.17 -15,-5 -14.17,-6.67 -13.33,-6.66 -13.33,-8.34 -13.34,-8.33 -12.5,-10 -11.66,-10 -10.84,-10.83 -10,-11.67 -10,-12.5 -8.33,-13.33 -8.33,-13.34 -6.67,-13.33 -6.67,-14.17 -5,-15 -4.16,-15 -3.34,-15 -2.5,-15.83 -1.66,-15 -0.84,-15.83 0.84,-15.84 1.66,-15 2.5,-15.83 3.34,-15 4.16,-15 5,-15 6.67,-14.17 6.67,-13.33 8.33,-13.33 8.33,-13.34 10,-12.5 10,-11.66 10.84,-10.84 11.66,-10 12.5,-10 13.34,-8.33 13.33,-8.33 13.33,-6.67 14.17,-6.67 15,-5 15,-4.16 15,-3.34 15.83,-2.5 15,-1.66 15.84,-0.84 15.83,0.84 15,1.66 15.83,2.5 15,3.34 15,4.16 15,5 14.17,6.67 13.33,6.67 13.34,8.33 13.33,8.33 12.5,10 11.67,10 10.83,10.84 10,11.66 10,12.5 8.33,13.34 8.34,13.33 6.66,13.33 6.67,14.17 5,15 4.17,15 3.33,15 2.5,15.83 1.67,15 0.83,15.84"
             style="fill:none;stroke:#000000;stroke-width:5;stroke-linecap:butt;stroke-linejoin:round;stroke-miterlimit:10;stroke-dasharray:none;stroke-opacity:1"
             id="path430"
             inkscape:connector-curvature="0" /><path
             d="m 4424.17,4019.17 -0.84,19.16 -1.66,20 -3.34,19.17 -4.16,19.17 -5,18.33 -6.67,18.33 -7.5,17.5 -9.17,17.5 -10,16.67 -10.83,16.67 -11.67,15 -13.33,15 -13.33,13.33 -15,13.33 -15,11.67 -16.67,10.83 -16.67,10 -17.5,9.17 -17.5,7.5 -18.33,6.67 -18.33,5 -19.17,4.16 -19.17,3.34 -20,1.66 -19.16,0.84 -19.17,-0.84 -20,-1.66 -19.17,-3.34 -19.16,-4.16 -18.34,-5 -18.33,-6.67 -17.5,-7.5 -17.5,-9.17 -16.67,-10 -16.66,-10.83 -15,-11.67 -15,-13.33 -13.34,-13.33 -13.33,-15 -11.67,-15 -10.83,-16.67 -10,-16.67 -9.17,-17.5 -7.5,-17.5 -6.66,-18.33 -5,-18.33 -4.17,-19.17 -3.33,-19.17 -1.67,-20 -0.83,-19.16 0.83,-19.17 1.67,-20 3.33,-19.17 4.17,-19.16 5,-18.34 6.66,-18.33 7.5,-17.5 9.17,-17.5 10,-16.67 10.83,-16.66 11.67,-15 13.33,-15 13.34,-13.34 15,-13.33 15,-11.67 16.66,-10.83 16.67,-10 17.5,-9.17 17.5,-7.5 18.33,-6.66 18.34,-5 19.16,-4.17 19.17,-3.33 20,-1.67 19.17,-0.83 19.16,0.83 20,1.67 19.17,3.33 19.17,4.17 18.33,5 18.33,6.66 17.5,7.5 17.5,9.17 16.67,10 16.67,10.83 15,11.67 15,13.33 13.33,13.34 13.33,15 11.67,15 10.83,16.66 10,16.67 9.17,17.5 7.5,17.5 6.67,18.33 5,18.34 4.16,19.16 3.34,19.17 1.66,20 0.84,19.17"
             style="fill:none;stroke:#000000;stroke-width:5;stroke-linecap:butt;stroke-linejoin:round;stroke-miterlimit:10;stroke-dasharray:none;stroke-opacity:1"
             id="path432"
             inkscape:connector-curvature="0" /><path
             d="m 4485.83,4019.17 -0.83,23.33 -2.5,23.33 -3.33,23.34 -5,22.5 -6.67,22.5 -8.33,21.66 -9.17,21.67 -10,20.83 -12.5,20 -12.5,19.17 -15,18.33 -15,17.5 -16.67,16.67 -17.5,15 -18.33,15 -19.17,12.5 -20,12.5 -20.83,10 -21.67,9.17 -21.66,8.33 -22.5,6.67 -22.5,5 -23.34,3.33 -23.33,2.5 -23.33,0.83 -23.34,-0.83 -23.33,-2.5 -23.33,-3.33 -22.5,-5 -22.5,-6.67 -21.67,-8.33 -21.67,-9.17 -20.83,-10 -20,-12.5 -19.17,-12.5 -18.33,-15 -17.5,-15 -16.67,-16.67 -15,-17.5 -15,-18.33 -12.5,-19.17 -12.5,-20 -10,-20.83 -9.16,-21.67 -8.34,-21.66 -6.66,-22.5 -5,-22.5 -3.34,-23.34 -2.5,-23.33 -0.83,-23.33 0.83,-23.34 2.5,-23.33 3.34,-23.33 5,-22.5 6.66,-22.5 8.34,-21.67 9.16,-21.67 10,-20.83 12.5,-20 12.5,-19.17 15,-18.33 15,-17.5 16.67,-16.67 17.5,-15 18.33,-15 19.17,-12.5 20,-12.5 20.83,-10 21.67,-9.16 21.67,-8.34 22.5,-6.66 22.5,-5 23.33,-3.34 23.33,-2.5 23.34,-0.83 23.33,0.83 23.33,2.5 23.34,3.34 22.5,5 22.5,6.66 21.66,8.34 21.67,9.16 20.83,10 20,12.5 19.17,12.5 18.33,15 17.5,15 16.67,16.67 15,17.5 15,18.33 12.5,19.17 12.5,20 10,20.83 9.17,21.67 8.33,21.67 6.67,22.5 5,22.5 3.33,23.33 2.5,23.33 0.83,23.34"
             style="fill:none;stroke:#000000;stroke-width:5;stroke-linecap:butt;stroke-linejoin:round;stroke-miterlimit:10;stroke-dasharray:none;stroke-opacity:1"
             id="path434"
             inkscape:connector-curvature="0" /><path
             d="m 4547.5,4019.17 -0.83,27.5 -2.5,26.66 -4.17,26.67 -5.83,26.67 -7.5,26.66 -9.17,25 -10.83,25 -12.5,25 -14.17,23.34 -15,22.5 -16.67,21.66 -18.33,20 -19.17,19.17 -20,18.33 -21.66,16.67 -22.5,15 -23.34,14.17 -25,12.5 -25,10.83 -25,9.17 -26.66,7.5 -26.67,5.83 -26.67,4.17 -26.66,2.5 -27.5,0.83 -27.5,-0.83 -26.67,-2.5 -26.67,-4.17 -26.66,-5.83 -26.67,-7.5 -25,-9.17 -25,-10.83 -25,-12.5 -23.33,-14.17 -22.5,-15 -21.67,-16.67 -20,-18.33 -19.17,-19.17 -18.33,-20 -16.67,-21.66 -15,-22.5 -14.16,-23.34 -12.5,-25 -10.84,-25 -9.16,-25 -7.5,-26.66 -5.84,-26.67 -4.16,-26.67 -2.5,-26.66 -0.84,-27.5 0.84,-27.5 2.5,-26.67 4.16,-26.67 5.84,-26.66 7.5,-26.67 9.16,-25 10.84,-25 12.5,-25 14.16,-23.33 15,-22.5 16.67,-21.67 18.33,-20 19.17,-19.17 20,-18.33 21.67,-16.67 22.5,-15 23.33,-14.16 25,-12.5 25,-10.84 25,-9.16 26.67,-7.5 26.66,-5.84 26.67,-4.16 26.67,-2.5 27.5,-0.84 27.5,0.84 26.66,2.5 26.67,4.16 26.67,5.84 26.66,7.5 25,9.16 25,10.84 25,12.5 23.34,14.16 22.5,15 21.66,16.67 20,18.33 19.17,19.17 18.33,20 16.67,21.67 15,22.5 14.17,23.33 12.5,25 10.83,25 9.17,25 7.5,26.67 5.83,26.66 4.17,26.67 2.5,26.67 0.83,27.5"
             style="fill:none;stroke:#000000;stroke-width:5;stroke-linecap:butt;stroke-linejoin:round;stroke-miterlimit:10;stroke-dasharray:none;stroke-opacity:1"
             id="path436"
             inkscape:connector-curvature="0" /><path
             d="m 4609.17,4019.17 -0.84,30.83 -2.5,31.67 -5,30 -6.66,30.83 -9.17,30 -10,29.17 -12.5,28.33 -14.17,27.5 -15.83,27.5 -17.5,25 -19.17,25 -20.83,23.33 -21.67,21.67 -23.33,20.83 -25,19.17 -25,17.5 -27.5,15.83 -27.5,14.17 -28.33,12.5 -29.17,10 -30,9.17 -30.83,6.66 -30,5 -31.67,2.5 -30.83,0.84 -30.84,-0.84 -31.66,-2.5 -30,-5 -30.84,-6.66 -30,-9.17 -29.16,-10 -28.34,-12.5 -27.5,-14.17 -27.5,-15.83 -25,-17.5 -25,-19.17 -23.33,-20.83 -21.67,-21.67 -20.83,-23.33 -19.17,-25 -17.5,-25 -15.83,-27.5 -14.17,-27.5 -12.5,-28.33 -10,-29.17 -9.16,-30 -6.67,-30.83 -5,-30 -2.5,-31.67 -0.83,-30.83 0.83,-30.84 2.5,-31.66 5,-30 6.67,-30.84 9.16,-30 10,-29.16 12.5,-28.34 14.17,-27.5 15.83,-27.5 17.5,-25 19.17,-25 20.83,-23.33 21.67,-21.67 23.33,-20.83 25,-19.17 25,-17.5 27.5,-15.83 27.5,-14.17 28.34,-12.5 29.16,-10 30,-9.16 30.84,-6.67 30,-5 31.66,-2.5 30.84,-0.83 30.83,0.83 31.67,2.5 30,5 30.83,6.67 30,9.16 29.17,10 28.33,12.5 27.5,14.17 27.5,15.83 25,17.5 25,19.17 23.33,20.83 21.67,21.67 20.83,23.33 19.17,25 17.5,25 15.83,27.5 14.17,27.5 12.5,28.34 10,29.16 9.17,30 6.66,30.84 5,30 2.5,31.66 0.84,30.84"
             style="fill:none;stroke:#000000;stroke-width:5;stroke-linecap:butt;stroke-linejoin:round;stroke-miterlimit:10;stroke-dasharray:none;stroke-opacity:1"
             id="path438"
             inkscape:connector-curvature="0" /><path
             d="m 4671.67,4019.17 -0.84,35 -3.33,35 -5.83,34.16 -7.5,34.17 -10,34.17 -11.67,32.5 -14.17,32.5 -15.83,30.83 -17.5,30 -20,29.17 -21.67,27.5 -22.5,26.66 -25,25 -26.66,22.5 -27.5,21.67 -29.17,20 -30,17.5 -30.83,15.83 -32.5,14.17 -32.5,11.67 -34.17,10 -34.17,7.5 -34.16,5.83 -35,3.33 -35,0.84 -35,-0.84 -35,-3.33 -34.17,-5.83 -34.17,-7.5 -34.16,-10 -32.5,-11.67 -32.5,-14.17 -30.84,-15.83 -30,-17.5 -29.16,-20 -27.5,-21.67 -26.67,-22.5 -25,-25 -22.5,-26.66 -21.67,-27.5 -20,-29.17 -17.5,-30 -15.83,-30.83 -14.17,-32.5 -11.66,-32.5 -10,-34.17 -7.5,-34.17 -5.84,-34.16 -3.33,-35 -0.83,-35 0.83,-35 3.33,-35 5.84,-34.17 7.5,-34.17 10,-34.16 11.66,-32.5 14.17,-32.5 15.83,-30.84 17.5,-30 20,-29.16 21.67,-27.5 22.5,-26.67 25,-25 26.67,-22.5 27.5,-21.67 29.16,-20 30,-17.5 30.84,-15.83 32.5,-14.17 32.5,-11.66 34.16,-10 34.17,-7.5 34.17,-5.84 35,-3.33 35,-0.83 35,0.83 35,3.33 34.16,5.84 34.17,7.5 34.17,10 32.5,11.66 32.5,14.17 30.83,15.83 30,17.5 29.17,20 27.5,21.67 26.66,22.5 25,25 22.5,26.67 21.67,27.5 20,29.16 17.5,30 15.83,30.84 14.17,32.5 11.67,32.5 10,34.16 7.5,34.17 5.83,34.17 3.33,35 0.84,35"
             style="fill:none;stroke:#000000;stroke-width:5;stroke-linecap:butt;stroke-linejoin:round;stroke-miterlimit:10;stroke-dasharray:none;stroke-opacity:1"
             id="path440"
             inkscape:connector-curvature="0" /><path
             d="m 4733.33,4019.17 -0.83,39.16 -4.17,38.34 -5.83,38.33 -8.33,38.33 -10.84,37.5 -13.33,36.67 -15,35 -18.33,35 -19.17,33.33 -22.5,32.5 -23.33,30.84 -25.84,29.16 -27.5,27.5 -29.16,25.84 -30.84,23.33 -32.5,22.5 -33.33,19.17 -35,18.33 -35,15 -36.67,13.33 -37.5,10.84 -38.33,8.33 -38.33,5.83 -38.34,4.17 -39.16,0.83 -39.17,-0.83 -38.33,-4.17 -38.34,-5.83 -38.33,-8.33 -37.5,-10.84 -36.67,-13.33 -35,-15 -35,-18.33 -33.33,-19.17 -32.5,-22.5 -30.83,-23.33 -29.17,-25.84 -27.5,-27.5 -25.83,-29.16 -23.34,-30.84 -22.5,-32.5 -19.16,-33.33 -18.34,-35 -15,-35 -13.33,-36.67 -10.83,-37.5 -8.34,-38.33 -5.83,-38.33 -4.17,-38.34 -0.83,-39.16 0.83,-39.17 4.17,-38.33 5.83,-38.34 8.34,-38.33 10.83,-37.5 13.33,-36.67 15,-35 18.34,-35 19.16,-33.33 22.5,-32.5 23.34,-30.83 25.83,-29.17 27.5,-27.5 29.17,-25.83 30.83,-23.34 32.5,-22.5 33.33,-19.16 35,-18.34 35,-15 36.67,-13.33 37.5,-10.83 38.33,-8.34 38.34,-5.83 38.33,-4.17 39.17,-0.83 39.16,0.83 38.34,4.17 38.33,5.83 38.33,8.34 37.5,10.83 36.67,13.33 35,15 35,18.34 33.33,19.16 32.5,22.5 30.84,23.34 29.16,25.83 27.5,27.5 25.84,29.17 23.33,30.83 22.5,32.5 19.17,33.33 18.33,35 15,35 13.33,36.67 10.84,37.5 8.33,38.33 5.83,38.34 4.17,38.33 0.83,39.17"
             style="fill:none;stroke:#000000;stroke-width:5;stroke-linecap:butt;stroke-linejoin:round;stroke-miterlimit:10;stroke-dasharray:none;stroke-opacity:1"
             id="path442"
             inkscape:connector-curvature="0" /><path
             d="m 4114.17,4019.17 681.66,0"
             style="fill:none;stroke:#000000;stroke-width:5;stroke-linecap:butt;stroke-linejoin:round;stroke-miterlimit:10;stroke-dasharray:none;stroke-opacity:1"
             id="path444"
             inkscape:connector-curvature="0" /><path
             d="M 4114.17,4019.17 4665.83,4420"
             style="fill:none;stroke:#000000;stroke-width:5;stroke-linecap:butt;stroke-linejoin:round;stroke-miterlimit:10;stroke-dasharray:none;stroke-opacity:1"
             id="path446"
             inkscape:connector-curvature="0" /><path
             d="M 4114.17,4019.17 4325,4667.5"
             style="fill:none;stroke:#000000;stroke-width:5;stroke-linecap:butt;stroke-linejoin:round;stroke-miterlimit:10;stroke-dasharray:none;stroke-opacity:1"
             id="path448"
             inkscape:connector-curvature="0" /><path
             d="M 4114.17,4019.17 3903.33,4667.5"
             style="fill:none;stroke:#000000;stroke-width:5;stroke-linecap:butt;stroke-linejoin:round;stroke-miterlimit:10;stroke-dasharray:none;stroke-opacity:1"
             id="path450"
             inkscape:connector-curvature="0" /><path
             d="M 4114.17,4019.17 3562.5,4420"
             style="fill:none;stroke:#000000;stroke-width:5;stroke-linecap:butt;stroke-linejoin:round;stroke-miterlimit:10;stroke-dasharray:none;stroke-opacity:1"
             id="path452"
             inkscape:connector-curvature="0" /><path
             d="m 4114.17,4019.17 -681.67,0"
             style="fill:none;stroke:#000000;stroke-width:5;stroke-linecap:butt;stroke-linejoin:round;stroke-miterlimit:10;stroke-dasharray:none;stroke-opacity:1"
             id="path454"
             inkscape:connector-curvature="0" /><path
             d="M 4114.17,4019.17 3562.5,3618.33"
             style="fill:none;stroke:#000000;stroke-width:5;stroke-linecap:butt;stroke-linejoin:round;stroke-miterlimit:10;stroke-dasharray:none;stroke-opacity:1"
             id="path456"
             inkscape:connector-curvature="0" /><path
             d="M 4114.17,4019.17 3903.33,3370.83"
             style="fill:none;stroke:#000000;stroke-width:5;stroke-linecap:butt;stroke-linejoin:round;stroke-miterlimit:10;stroke-dasharray:none;stroke-opacity:1"
             id="path458"
             inkscape:connector-curvature="0" /><path
             d="M 4114.17,4019.17 4325,3370.83"
             style="fill:none;stroke:#000000;stroke-width:5;stroke-linecap:butt;stroke-linejoin:round;stroke-miterlimit:10;stroke-dasharray:none;stroke-opacity:1"
             id="path460"
             inkscape:connector-curvature="0" /><path
             d="m 4114.17,4019.17 551.66,-400.84"
             style="fill:none;stroke:#000000;stroke-width:5;stroke-linecap:butt;stroke-linejoin:round;stroke-miterlimit:10;stroke-dasharray:none;stroke-opacity:1"
             id="path462"
             inkscape:connector-curvature="0" /></g></g></g><g
       id="g5990"
       transform="translate(2.8944708,0)"><g
         transform="matrix(0.1,0,0,0.1,0,-0.0769037)"
         id="g368"><path
           sodipodi:nodetypes="cc"
           inkscape:connector-curvature="0"
           id="path4866"
           d="m 2791.2441,4262.5056 c 311.4566,121.6164 495.3643,20.7638 548.7569,0"
           style="fill:none;fill-rule:evenodd;stroke:#000000;stroke-width:8px;stroke-linecap:butt;stroke-linejoin:miter;stroke-opacity:1;marker-end:url(#Arrow1Lend)" /><path
           style="fill:none;fill-rule:evenodd;stroke:#000000;stroke-width:8px;stroke-linecap:butt;stroke-linejoin:miter;stroke-opacity:1;marker-end:url(#marker5822)"
           d="m 3352.1163,3838.868 c -311.4566,-121.6164 -495.3643,-20.7638 -548.7569,0"
           id="path5820"
           inkscape:connector-curvature="0"
           sodipodi:nodetypes="cc" /></g><text
         transform="scale(1,-1)"
         sodipodi:linespacing="125%"
         id="text5968"
         y="-438.06287"
         x="301.289"
         style="font-style:normal;font-variant:normal;font-weight:normal;font-stretch:normal;font-size:16.30359268px;line-height:125%;font-family:'Times New Roman';-inkscape-font-specification:'Times New Roman';letter-spacing:0px;word-spacing:0px;fill:#000000;fill-opacity:1;stroke:none;stroke-width:1px;stroke-linecap:butt;stroke-linejoin:miter;stroke-opacity:1"
         xml:space="preserve"><tspan
           style="font-style:italic;font-variant:normal;font-weight:normal;font-stretch:normal;font-family:'Times New Roman';-inkscape-font-specification:'Times New Roman,  Italic'"
           y="-438.06287"
           x="301.289"
           id="tspan5970"
           sodipodi:role="line"> f </tspan></text>
<g
         transform="translate(-4.71011,9.0190678)"
         id="g5984"><text
           xml:space="preserve"
           style="font-style:normal;font-variant:normal;font-weight:normal;font-stretch:normal;font-size:16.30359268px;line-height:125%;font-family:'Times New Roman';-inkscape-font-specification:'Times New Roman';letter-spacing:0px;word-spacing:0px;fill:#000000;fill-opacity:1;stroke:none;stroke-width:1px;stroke-linecap:butt;stroke-linejoin:miter;stroke-opacity:1"
           x="300.36078"
           y="-352.12357"
           id="text5976"
           sodipodi:linespacing="125%"
           transform="scale(1,-1)"><tspan
             sodipodi:role="line"
             id="tspan5978"
             x="300.36078"
             y="-352.12357"
             style="font-style:italic;font-variant:normal;font-weight:normal;font-stretch:normal;font-family:'Times New Roman';-inkscape-font-specification:'Times New Roman,  Italic'"> f </tspan></text>
<text
           transform="scale(1,-1)"
           sodipodi:linespacing="125%"
           id="text5980"
           y="-359.25494"
           x="311.77859"
           style="font-style:normal;font-variant:normal;font-weight:normal;font-stretch:normal;font-size:10.71683884px;line-height:125%;font-family:'Times New Roman';-inkscape-font-specification:'Times New Roman';letter-spacing:0px;word-spacing:0px;fill:#000000;fill-opacity:1;stroke:none;stroke-width:1px;stroke-linecap:butt;stroke-linejoin:miter;stroke-opacity:1"
           xml:space="preserve"><tspan
             style="font-style:italic;font-variant:normal;font-weight:normal;font-stretch:normal;font-family:'Times New Roman';-inkscape-font-specification:'Times New Roman,  Italic'"
             y="-359.25494"
             x="311.77859"
             id="tspan5982"
             sodipodi:role="line"> -1 </tspan></text>
</g></g></g></svg>